<svg id="Layer_1" data-name="Layer 1" xmlns="http://www.w3.org/2000/svg" viewBox="0 0 3477.6 1473.31"><title>Imran Jami Signature</title><path d="M665.16,638.78c43.46-72.16,92.56-141.1,149.55-203.23a1171.17,1171.17,0,0,1,186.69-164.5c68.53-48.42,142.38-89.69,220-121.73,75.86-31.33,156.69-56.54,238.12-68.19,37.54-5.37,80.5-8.2,114.81,11,33.92,19,44.39,55.57,43.46,91.64-1,39.64-15.77,80.11-33,116.65-18.9,40.16-44.41,81.32-69.6,114.7C1458.8,489.88,1391.74,556.09,1323.61,620q-107.07,100.47-220.75,193.55-6.52,5.36-13,10.69c-.23.19-8.84,7.19-3.5,2.86l-5.24,4.24q-14.41,11.65-28.93,23.18-29,23-58.46,45.6-57.52,44.07-116.53,86.19-119.37,85.21-244.4,162.14-123.54,76-252,143.54-64.21,33.75-129.57,65.29Q217.72,1373.42,184,1389c-1.29.6-10.71,3.26-3.55,1.65,6.63-1.49-.78.29-2.21.89q-6.15,2.58-12.41,4.87a222.94,222.94,0,0,1-29.83,8.74c-1.94.41-4.83.41-6.55,1.27l5.93-1q-2.59.36-5.19.63a120.51,120.51,0,0,1-12.74.65c-2,0-4.2-.36-6.21-.22-5.64.41,11.06,2.07,2.82.29-2.33-.51-4.66-.87-7-1.48-5.37-1.43-5.19-3.83,1.4,1-2.37-1.74-7.31-4.67-10.15-5.54l5,3.61q-1.83-1.5-3.54-3.17c-1.13-1.1-6.92-5.44-1.45-1.29,5.2,4,0-.8-1.29-2.59-5.44-7.44,2.39,8.63-.06,0-.49-1.71-1-3.53-1.5-5.22q-1.42-7,.49,3.32c-.17-1.8-.26-3.61-.28-5.43a52.37,52.37,0,0,0,.16-5.49l-.67,5.89c.26-1.87.59-3.72,1-5.57a138.71,138.71,0,0,1,4-14c3.1-9.75-4.14,8.53.41-.8.9-1.84,1.73-3.71,2.64-5.55,2.78-5.58,5.88-11,9.19-16.28,1.66-2.65,3.39-5.27,5.15-7.86.31-.45,6.4-8.7,2.17-3.16s2-2.46,2.33-2.91q2.79-3.52,5.68-7c7.26-8.74,14.66-17.38,22.08-26a2463.42,2463.42,0,0,1,184.62-192.08q49.83-46.53,102.14-90.32,11.88-9.95,23.88-19.74c8.24-6.76-7.15,5.74,1.16-.94l4.83-3.89q7.25-5.84,14.53-11.6,26.73-21.18,54-41.63A2553.54,2553.54,0,0,1,994.73,666.83c4.69-2.16,9.4-4.3,14.09-6.45,9.32-4.27-6.06,2.7-.09,0l7.07-3.16q15.59-6.94,31.24-13.68,31.34-13.46,63-26.07,61.92-24.64,125.07-46a2462.91,2462.91,0,0,1,259.66-72.2c10.1-2.22,20.21-4.34,30.32-6.46,4.1-.86,8.18-1.74,12.29-2.52,2.38-.46,5.27-.57,7.55-1.37-9.82,3.44-4.74.72-.73.16,9.07-1.27,18.2-2.17,27.36-2.59,4.75-.21,9.51-.3,14.26-.23s10.75,1.66,15.26.81c-6.48,1.22-7.35-1-3.26-.3,2.44.41,4.89.74,7.32,1.2,4,.76,7.89,1.68,11.76,2.8,1.68.48,5.06,2.28,6.78,2.07-4.28.51-7.28-3.17-3.07-1.06s8.1,4.24,12.12,6.51c7.06,4-6.74-6.06-.75-.59,1.69,1.54,3.45,3,5.08,4.57.57.57,2.7,3.25,3.16,3.32l-3.32-4.18c1,1.23,1.9,2.5,2.79,3.79,1.3,1.89,8.42,12.81,3.4,4.7,1.24,2,1.83,4.79,2.52,7,.44,1.4.83,2.81,1.17,4.25q1.34,6.48-.09-1.62c1.86,3.27.54,10.64.46,14.45-.22,9.65,1.83-8.07-.26,1.47-.43,1.94-.76,3.89-1.21,5.83-.69,2.94-1.5,5.85-2.41,8.73-.42,1.35-4.08,10.82-.64,2.48-2,4.88-4.25,9.66-6.68,14.34a260.05,260.05,0,0,1-16.76,27.72c-.49.71-6.9,9.4-2.07,2.94q-1.94,2.59-3.91,5.16c-3.86,5-7.85,10-11.89,14.85-12.13,14.69-14.28,37.95,1.26,51.53,15.83,13.83,36.35,12.38,51.54-1.26l123.06-110.6c13.33-12,12-36.78-1.19-48.27-15.07-13.16-33.77-11.29-48.27,1.19-40.46,34.83-55.87,91.42-44.62,142.64,5.61,25.57,38.68,28.88,55.25,13.14l82.18-78-55.06-21.24,1.44,57.26c.55,22.27,28.34,40.65,48,26L1884.61,598l-46.93-25.43c4.64,43.7,37.5,82.5,82.56,87.43,45.47,5,84.44-22.62,100.5-64.2,5.55-14.37-7.17-32.73-21.39-35.6-17.21-3.48-29.65,6-35.6,21.38,2.1-5.44-2,2.75-2.59,3.81-1.14,1.72-.94,1.53.58-.57-1.12,1.41-2.29,2.78-3.53,4.09-.33.36-6.67,6.14-2.13,2.48a56.88,56.88,0,0,1-6.73,4.57q-2.32,1.39-4.76,2.59,4.38-2-.45,0c-2.59.7-5.24,1.43-7.8,2.22,5.62-1.74-1.06.05-2.77.12s-3.6.07-5.4,0c3.06.44,3.49.49,1.28.13-3.08-.77-6.14-1.31-9.17-2.32,5,1.65-1-.6-2.57-1.49-.61-.34-7.62-5.11-2.77-1.38a64.25,64.25,0,0,1-7-6.37c-1-1-1.87-2-2.75-3q3.13,3.78,0-.43c-1.3-2.38-2.84-4.59-4.08-7,2.88,5.66-.32-1.35-.76-2.78q-.78-2.58-1.34-5.22.78,5.55.19.09c-1.92-21.46-26.67-40-46.93-25.42l-70.43,50.73,48,26-.51-57.28c-.11-12.73-8.78-24.15-20.34-28.69-12.43-4.89-25.06-1.42-34.71,7.45l-83.51,76.76L1746,633.79c-1.76-8.71,0,4-.23-1.07-.12-2.35-.48-4.7-.6-7.05-.24-4.75.06-9.41.22-14.15-.1,3-.6,4,0,.39.42-2.33.82-4.64,1.33-7,1-4.66,2.56-9.06,3.91-13.63,1.42-4.79-3.23,6.76.54-1.15.82-1.71,1.55-3.45,2.44-5.12a123.22,123.22,0,0,1,7.41-12.08c-2.65,3.88-1,1.39.91-.91q2.28-2.7,4.72-5.27a114.23,114.23,0,0,1,10.49-9.54l-49.46-47.08-126.4,107.41,52.8,50.27c7.72-8.84,15.2-17.87,22.23-27.27,18.42-24.64-8.45,12.23,9.46-12.88,1.9-2.65,3.77-5.33,5.58-8.05,3.58-5.38,7-10.89,10.12-16.55,13-23.56,21.91-49.6,22.3-76.72.41-28.8-11.09-55.83-29.76-77.28-7.19-8.27-16-15-25.2-20.89a87.85,87.85,0,0,0-10-5.58c-4.43-2.09-9.28-4-13.8-5.62,13.17,4.65-1.88-1-6.6-2.62-41.74-14.47-88.73-10.38-131.4-2.82-45.19,8-90.06,19.44-134.44,31.06-182.92,47.91-360.2,117.13-528.09,204C676.83,733.47,519.64,839.06,374.76,960A2494.75,2494.75,0,0,0,171,1150.34q-48.21,50.4-93.51,103.48c-33.2,38.93-70.83,86.45-67.28,141C12,1422.64,24.36,1450,46.6,1467.4c21.71,17,47.92,24.52,75.44,23.68,49.08-1.5,93-24.87,136.14-45.83q136.45-66.3,267.93-142.23a4293.29,4293.29,0,0,0,502.63-339.79c81.07-63.59,160-129.84,236.2-199.27,73.53-67,146.3-135.89,212.75-210s123.9-156.79,159.54-250.1c30.17-79,45.3-188.42-36.64-242.37-37-24.35-85-26.27-127.65-21.47-44,4.95-87.79,15.27-130.4,27.09A1154.45,1154.45,0,0,0,708.47,516.35a850.63,850.63,0,0,0-65.2,110.35c-7.13,14.44,13.57,25.9,21.89,12.08Z" transform="translate(-10 -17.83)"/><path d="M1771.57,149.72c80.21,48.51,167.38,80.87,258.92,100.39,90.87,19.38,184.28,26.79,277.11,25.16,204.8-3.61,406.64-54.14,603.68-105.81,23.58-6.19,47.57-11.6,70.81-19,19.78-6.31,38.08-15.66,52.41-31,15.23-16.29,20.06-38.89,14.61-60.33-1.25-4.89-3.05-10.42-5.81-14.54s-.31.36.18,1.22c-3-5.32-4.36-9.55-9.06-13.83-9.35-8.53-20.77-13.71-33.52-14.12-16.68-.55-24.57,8-33.65,20.13q-12.69,17-25,34.26-21.37,30-41.46,60.9c-26.19,40.19-50.85,81.35-74.43,123.12-94.23,166.9-171.18,342.78-262.56,511.18-87.78,161.76-188.68,316.71-328.1,438.8a927.09,927.09,0,0,1-214.75,140.19c-73.66,34.52-160,58-241.64,62.49a616.56,616.56,0,0,1-64.49.13c-22.49-1.15-37.57-2.73-60.22-7.33-10.09-2-20.09-4.51-29.95-7.47q-6.62-2-13.13-4.29c-2.41-.85-4.82-1.69-7.19-2.64,3.69,1.47-3.76-1.64-4.44-1.94a230.66,230.66,0,0,1-26.9-14c-10.52-6.38-14.27-9.12-23.35-17.25-28.68-25.72-44.8-57.08-54.16-95.49-1.17-4.82-2.13-9.68-3.1-14.54-1.86-9.33.36,3-.45-2.52q-.54-3.69-1-7.39a293.6,293.6,0,0,1-2-32.74c-.07-9.91.37-19.82,1.22-29.68.54-6.33,1.66-14.64,3.62-25.31,15.07-81.74,57.53-152.09,115.55-211.33q10.77-11,22.15-21.38,5.67-5.17,11.49-10.19c1.55-1.34,3.1-2.66,4.66-4,.12-.1,7.13-5.92,3.58-3a629.08,629.08,0,0,1,57.38-41.3c37.29-24,80.18-46.32,118.14-62.9C1916,753.4,2010,724.23,2104,698.92A2599.3,2599.3,0,0,1,2395.12,638a2636.4,2636.4,0,0,1,302.3-27.18c50.74-1.62,101.4-1.09,152.14-.61,49.51.48,99.46-2.8,145-23.87,39.35-18.21,69.76-48.88,85.18-89.49,6.44-17-11.63-38.54-29.18-36.43C2987.8,468,2942,531.47,2960,593.58c5.33,18.44,27.15,25.66,43.15,16.33l130.93-76.3-36-44.39c-40.52,35.33-3.13,97.82,40.55,107.7,52.23,11.81,90.34-36.69,114.87-75,14.66-22.91-16.74-53.66-39-37.13-19.52,14.5-27.84,37.12-20.34,60.76,6.85,21.56,24.14,39.39,45.63,46.42,48.45,15.86,89.5-31,105.73-70.91l-51.24-12.53c2.61,30.38,25.56,53.6,55.42,59,28.58,5.11,61.54-4.76,74.28-33,6.07-13.44,2.93-29.6-10.72-37.13-12.12-6.7-31-2.8-37.13,10.71-.71,1.58-2.11,3.46-2.66,5.06q3.33-4.27,1.35-2a20.35,20.35,0,0,1-1.88,1.95l2.68-2.1a32.86,32.86,0,0,1-3,2l-1.57.87c3.48-1.46,4.25-1.82,2.33-1.07a19.15,19.15,0,0,0-5.27,1.6c-2.29,1.29,5.49.1.79-.12a37,37,0,0,0-5.67.17c-5.14.72,4.69,1.52-.32.06-1.81-.53-3.75-.81-5.59-1.27-1-.24-5.92-2.35-2.07-.59s-1-.66-1.8-1.1c-3.27-1.83-3.39-2.68-.5,0a32.84,32.84,0,0,0-4-3.69c4.32,2.51,1.31,3.09.1-.3-1.81-5.08,1.57,5.59,0-.15-1.48-5.35.36,6-.17-.19-1-12.08-8.54-22.83-20.7-25.85-10.76-2.68-26.06,2.28-30.54,13.31-5.31,13-11.5,24.69-18.7,32.66-6.25,6.92-6.21,6.73-13.28,10.69,4.14-2.32-4.48,1.48-5.75,1.85-5.38,1.58,2.1-.1-3.92.21q-3.15-.15,2.08.18a33.21,33.21,0,0,1-4-1.11c8.14,2.52-5.25-4.32,1.18.65a51.11,51.11,0,0,1-6.24-5.89c4.89,5.29-.47-1.86-1.12-2.35q-1.47-2.7.62,1.85a39.05,39.05,0,0,1-1.4-3.84,36.49,36.49,0,0,1-1-3.87q.91,6.18.61,1.57.2-4.69-.23,1.82,1.24-4.34-.81,1.5,2.25-3.82-1,1.06,3.16-3.11-.9.51l-39-37.12c-2.07,3.14-4.14,6.28-6.26,9.38-.91,1.33-6,8.3-4.13,5.88a166.38,166.38,0,0,1-14.84,17.21c-1.32,1.31-2.69,2.56-4,3.84-1.15,1.08-3.14,2.54-.76.73-2.89,2.2-6,4-9,6-1.62,1-3.3,1.74-.53.53a53.22,53.22,0,0,1-5,1.86c-1.73.55-3.48,1-5.23,1.42,3.45-.86.9-.09-1.28,0-1,0-5.43-.68-1.76,0,4.21.83-1.37-.44-1.67-.71-2.82-2.54,3.76,2.61.59.28a17.34,17.34,0,0,0-4-2.16c-3-.83,2.49,2.59.3.39-1.05-1-2.29-2-3.41-3-.48-.43-3.89-4.07-1.52-1.33s-.67-1-1-1.63a38.2,38.2,0,0,0-2.26-3.76c-1.87-2.34.76,3.78.46.93a17.22,17.22,0,0,0-1.16-4c-1.6-3.68,1.5,5.36.4,1.67-.35-1.15.67-5.24-.14-1-1.2,6.3,1.45-4.06-.27,1.76q-1.24,2.93-.14.82c.79-1.32.63-1.16-.46.48s-1.28,1.77-.2.58a21.33,21.33,0,0,1,2.43-2.22c10.72-9.28,9.76-27.81,1.33-37.88a29,29,0,0,0-37.35-6.51L2972.53,560.4l43.15,16.34c-.24-.87-2-9-1-2.24a55.05,55.05,0,0,1-.55-6.28c-.09-2.11,0-4.2,0-6.3.19-7.57-1.44,5.11.39-2.25.61-2.47,1.09-4.93,1.82-7.37.22-.72,2.68-7.1,1.2-3.66s1.47-2.81,1.8-3.44c1.19-2.28,2.57-4.4,3.85-6.62,2.66-4.6-1.24,1.2.83-1.22,1.39-1.61,2.73-3.26,4.2-4.81,1.75-1.85,3.6-3.59,5.5-5.29-3.75,3.34.68-.4,2.25-1.44,1.75-1.16,3.58-2.21,5.41-3.25,2.3-1.31,4.92-2,1.06-.61,2.36-.84,4.86-1.48,7.2-2.35,5.81-2.15-4.49.24,2.26-.55l-29.19-36.43c1.75-4.54-2.38,4.67-2.95,5.74-1.74,3.29-3.71,6.43-5.71,9.57-.09.14-2.76,3.84-1,1.51,2-2.6-1.64,1.94-2.07,2.46q-4.05,4.83-8.55,9.24c-7.62,7.46-18.8,15.29-32.38,22.11-.6.3-5.95,2.84-3,1.5s-2.49,1-3.11,1.27c-3.09,1.25-6.21,2.43-9.37,3.5a208.37,208.37,0,0,1-26.57,7.06c-14.53,2.92-34,4.26-51.05,4.69-38.24,1-76.53-.79-114.78-.55q-58,.38-115.9,3.31a2688,2688,0,0,0-463,64.37q-113,25.88-223.49,61.62c-69.34,22.47-137.86,47.87-203.23,80.3-121.55,60.29-233.77,151.84-290.32,278.07-27.08,60.45-42.33,128-34.5,194.33,7.81,66.21,35.66,131.54,90.11,172.55,55.95,42.14,125.52,56.41,194.27,59.28,67.08,2.81,135-5.59,199.92-22.38,132-34.12,252.65-104.55,355.56-192.92,107.69-92.49,194.87-207.24,269.6-327.29,76.22-122.43,139.71-252,203.26-381.29,65.12-132.46,131.12-265,212.19-388.64,19.28-29.38,39.58-58.53,60.3-86l-19.95,8.85c1.75-.16,6.07,1.08,2.43-.3-1.07-.4-8.05-3-3.23-.62-.67-.33-4.92-4.13-1.11-.76,1,.92,6.1,6.13,7.29,5.76l-5.86-5.53a27.86,27.86,0,0,1,1.78,2.65c.86-.24,2.76,7,.52.5.48,1.39.87,2.85,1.37,4.22,1.84,5,.57-3.37.3,2,0,0-.49,7,.06,3.32s-1,3.14-1,3.13c1.74-4.91-2.53,3.55-1.85,2.7-4.17,5.16-11.83,9-17.93,11.59-19,8-39.79,12.23-59.59,17.66q-34.39,9.44-68.85,18.71c-90.59,24.31-181.64,47.25-273.78,65-172.5,33.17-352.27,47.85-526.32,17.54-93.52-16.29-186.31-45.37-271-88.51-10.36-5.28-18.63,9.78-8.71,15.78Z" transform="translate(-10 -17.83)"/><path d="M3467.17,491a57.16,57.16,0,0,0,6.29-18.38L3466,486.13q2.79-3-3,2c2.18-1.69,4.32-3.42,6.44-5.19,1.27-1.07,2.54-2.13,3.73-3.28a67.1,67.1,0,0,0,6.6-7.4c2.77-3.57,10-12.28,6.9-17.32-.1-1.31-.18-1-.26.82.17-.75.31-1.51.44-2.27.31-1.86.49-3.75.69-5.63.42-3.95-4.07-7.62-7.74-7.37-1.27.09-2.56,0-3.82.14-4.58.42,2.72-.07,2.32.84.88-2-11.41-2.68-14-2.58-1.33,0-2.65.05-4,0-.91-.05-1.82-.11-2.72-.2l3.76.4a25,25,0,0,0-3.71-.66c-6.76-1.42,4.58,2.73,1.08.57l15.55,25.63c.54-21.63-11.11-42.84-30.2-53.39a60.87,60.87,0,0,0-45.38-4.81c-13.53,4.09-28,15-34.42,27.84-6.87,13.8-10.07,30.39-4.81,45.38,4.95,14.09,14.08,27.58,27.84,34.42l14.17,5.57a44.51,44.51,0,0,0,23.43.48,43.69,43.69,0,0,0,21.65-7.51A59,59,0,0,0,3467.17,491Z" transform="translate(-10 -17.83)"/></svg>